<mxfile host="app.diagrams.net" modified="2021-03-17T05:34:24.502Z" agent="5.0 (Windows NT 10.0; Win64; x64) AppleWebKit/537.36 (KHTML, like Gecko) Chrome/89.0.4389.72 Safari/537.36" etag="jCgp3EIsK0esxt4r_165" version="14.4.4" type="github">
  <diagram id="C5RBs43oDa-KdzZeNtuy" name="Page-1">
    <mxGraphModel dx="1320" dy="1118" grid="1" gridSize="10" guides="1" tooltips="1" connect="1" arrows="1" fold="1" page="1" pageScale="1" pageWidth="827" pageHeight="1169" math="0" shadow="0">
      <root>
        <mxCell id="WIyWlLk6GJQsqaUBKTNV-0" />
        <mxCell id="WIyWlLk6GJQsqaUBKTNV-1" parent="WIyWlLk6GJQsqaUBKTNV-0" />
        <mxCell id="5tqb1Q8tlAFIYyy0v0kL-23" style="edgeStyle=orthogonalEdgeStyle;rounded=0;orthogonalLoop=1;jettySize=auto;html=1;entryX=0.5;entryY=0;entryDx=0;entryDy=0;fontSize=14;" edge="1" parent="WIyWlLk6GJQsqaUBKTNV-1" source="5tqb1Q8tlAFIYyy0v0kL-1" target="5tqb1Q8tlAFIYyy0v0kL-2">
          <mxGeometry relative="1" as="geometry" />
        </mxCell>
        <mxCell id="5tqb1Q8tlAFIYyy0v0kL-1" value="int number;&lt;br&gt;int ten, one;" style="verticalLabelPosition=middle;verticalAlign=middle;html=1;shape=hexagon;perimeter=hexagonPerimeter2;arcSize=6;size=0.27;labelPosition=center;align=center;" vertex="1" parent="WIyWlLk6GJQsqaUBKTNV-1">
          <mxGeometry x="343.75" y="160" width="190" height="120" as="geometry" />
        </mxCell>
        <mxCell id="5tqb1Q8tlAFIYyy0v0kL-24" style="edgeStyle=orthogonalEdgeStyle;rounded=0;orthogonalLoop=1;jettySize=auto;html=1;exitX=0.5;exitY=1;exitDx=0;exitDy=0;entryX=0.5;entryY=0;entryDx=0;entryDy=0;fontSize=14;" edge="1" parent="WIyWlLk6GJQsqaUBKTNV-1" source="5tqb1Q8tlAFIYyy0v0kL-2" target="5tqb1Q8tlAFIYyy0v0kL-4">
          <mxGeometry relative="1" as="geometry" />
        </mxCell>
        <mxCell id="5tqb1Q8tlAFIYyy0v0kL-2" value="number" style="html=1;strokeWidth=2;shape=manualInput;whiteSpace=wrap;rounded=1;size=26;arcSize=0;" vertex="1" parent="WIyWlLk6GJQsqaUBKTNV-1">
          <mxGeometry x="381.25" y="320" width="115" height="60" as="geometry" />
        </mxCell>
        <mxCell id="5tqb1Q8tlAFIYyy0v0kL-25" style="edgeStyle=orthogonalEdgeStyle;rounded=0;orthogonalLoop=1;jettySize=auto;html=1;exitX=0.5;exitY=1;exitDx=0;exitDy=0;entryX=0.5;entryY=0;entryDx=0;entryDy=0;entryPerimeter=0;fontSize=14;" edge="1" parent="WIyWlLk6GJQsqaUBKTNV-1" source="5tqb1Q8tlAFIYyy0v0kL-4" target="5tqb1Q8tlAFIYyy0v0kL-5">
          <mxGeometry relative="1" as="geometry" />
        </mxCell>
        <mxCell id="5tqb1Q8tlAFIYyy0v0kL-4" value="ten = number / 10;&lt;br&gt;one = number % 10;" style="rounded=1;whiteSpace=wrap;html=1;absoluteArcSize=1;arcSize=0;strokeWidth=2;" vertex="1" parent="WIyWlLk6GJQsqaUBKTNV-1">
          <mxGeometry x="353.75" y="420" width="170" height="60" as="geometry" />
        </mxCell>
        <mxCell id="5tqb1Q8tlAFIYyy0v0kL-19" value="Y" style="edgeStyle=orthogonalEdgeStyle;rounded=0;orthogonalLoop=1;jettySize=auto;html=1;exitX=0;exitY=0.5;exitDx=0;exitDy=0;exitPerimeter=0;entryX=1;entryY=0.5;entryDx=0;entryDy=0;entryPerimeter=0;fontSize=14;" edge="1" parent="WIyWlLk6GJQsqaUBKTNV-1" source="5tqb1Q8tlAFIYyy0v0kL-5" target="5tqb1Q8tlAFIYyy0v0kL-18">
          <mxGeometry relative="1" as="geometry" />
        </mxCell>
        <mxCell id="5tqb1Q8tlAFIYyy0v0kL-20" value="N" style="edgeStyle=orthogonalEdgeStyle;rounded=0;orthogonalLoop=1;jettySize=auto;html=1;exitX=0.5;exitY=1;exitDx=0;exitDy=0;exitPerimeter=0;entryX=0.5;entryY=0;entryDx=0;entryDy=0;entryPerimeter=0;fontSize=14;" edge="1" parent="WIyWlLk6GJQsqaUBKTNV-1" source="5tqb1Q8tlAFIYyy0v0kL-5" target="5tqb1Q8tlAFIYyy0v0kL-7">
          <mxGeometry relative="1" as="geometry" />
        </mxCell>
        <mxCell id="5tqb1Q8tlAFIYyy0v0kL-5" value="((ten%3==0)&amp;amp;&amp;amp;(one%3==0))" style="strokeWidth=2;html=1;shape=mxgraph.flowchart.decision;whiteSpace=wrap;" vertex="1" parent="WIyWlLk6GJQsqaUBKTNV-1">
          <mxGeometry x="303.75" y="520" width="270" height="160" as="geometry" />
        </mxCell>
        <mxCell id="5tqb1Q8tlAFIYyy0v0kL-14" value="N" style="edgeStyle=orthogonalEdgeStyle;rounded=0;orthogonalLoop=1;jettySize=auto;html=1;exitX=0.5;exitY=1;exitDx=0;exitDy=0;exitPerimeter=0;fontSize=14;" edge="1" parent="WIyWlLk6GJQsqaUBKTNV-1" source="5tqb1Q8tlAFIYyy0v0kL-7" target="5tqb1Q8tlAFIYyy0v0kL-12">
          <mxGeometry relative="1" as="geometry" />
        </mxCell>
        <mxCell id="5tqb1Q8tlAFIYyy0v0kL-15" value="Y" style="edgeStyle=orthogonalEdgeStyle;rounded=0;orthogonalLoop=1;jettySize=auto;html=1;exitX=0;exitY=0.5;exitDx=0;exitDy=0;exitPerimeter=0;entryX=1;entryY=0.5;entryDx=0;entryDy=0;fontSize=14;" edge="1" parent="WIyWlLk6GJQsqaUBKTNV-1" source="5tqb1Q8tlAFIYyy0v0kL-7">
          <mxGeometry relative="1" as="geometry">
            <mxPoint x="260" y="800" as="targetPoint" />
          </mxGeometry>
        </mxCell>
        <mxCell id="5tqb1Q8tlAFIYyy0v0kL-7" value="((ten%3==0)||(one%3==0))" style="strokeWidth=2;html=1;shape=mxgraph.flowchart.decision;whiteSpace=wrap;" vertex="1" parent="WIyWlLk6GJQsqaUBKTNV-1">
          <mxGeometry x="303.75" y="720" width="270" height="160" as="geometry" />
        </mxCell>
        <mxCell id="5tqb1Q8tlAFIYyy0v0kL-16" style="edgeStyle=orthogonalEdgeStyle;rounded=0;orthogonalLoop=1;jettySize=auto;html=1;fontSize=14;exitX=0.475;exitY=0.9;exitDx=0;exitDy=0;exitPerimeter=0;" edge="1" parent="WIyWlLk6GJQsqaUBKTNV-1" source="5tqb1Q8tlAFIYyy0v0kL-17">
          <mxGeometry relative="1" as="geometry">
            <mxPoint x="430" y="940" as="targetPoint" />
            <mxPoint x="175" y="835" as="sourcePoint" />
            <Array as="points">
              <mxPoint x="190" y="824" />
              <mxPoint x="190" y="940" />
            </Array>
          </mxGeometry>
        </mxCell>
        <mxCell id="5tqb1Q8tlAFIYyy0v0kL-22" style="edgeStyle=orthogonalEdgeStyle;rounded=0;orthogonalLoop=1;jettySize=auto;html=1;exitX=0.5;exitY=1;exitDx=0;exitDy=0;exitPerimeter=0;entryX=0.5;entryY=0;entryDx=0;entryDy=0;fontSize=14;" edge="1" parent="WIyWlLk6GJQsqaUBKTNV-1" source="5tqb1Q8tlAFIYyy0v0kL-11" target="5tqb1Q8tlAFIYyy0v0kL-1">
          <mxGeometry relative="1" as="geometry" />
        </mxCell>
        <mxCell id="5tqb1Q8tlAFIYyy0v0kL-11" value="&#xa;&#xa;&lt;span style=&quot;color: rgb(0, 0, 0); font-family: helvetica; font-size: 12px; font-style: normal; font-weight: 400; letter-spacing: normal; text-align: center; text-indent: 0px; text-transform: none; word-spacing: 0px; background-color: rgb(248, 249, 250); display: inline; float: none;&quot;&gt;void main(String[] args)&lt;/span&gt;&#xa;&#xa;" style="strokeWidth=2;html=1;shape=mxgraph.flowchart.terminator;whiteSpace=wrap;" vertex="1" parent="WIyWlLk6GJQsqaUBKTNV-1">
          <mxGeometry x="355" y="70" width="167.5" height="60" as="geometry" />
        </mxCell>
        <mxCell id="5tqb1Q8tlAFIYyy0v0kL-12" value="END" style="strokeWidth=2;html=1;shape=mxgraph.flowchart.terminator;whiteSpace=wrap;" vertex="1" parent="WIyWlLk6GJQsqaUBKTNV-1">
          <mxGeometry x="355" y="970" width="167.5" height="60" as="geometry" />
        </mxCell>
        <mxCell id="5tqb1Q8tlAFIYyy0v0kL-17" value="&lt;span style=&quot;font-size: 12px&quot;&gt;&quot;박수짝&quot;&lt;/span&gt;" style="strokeWidth=2;html=1;shape=mxgraph.flowchart.document2;whiteSpace=wrap;size=0.25;fontSize=14;" vertex="1" parent="WIyWlLk6GJQsqaUBKTNV-1">
          <mxGeometry x="140" y="770" width="120" height="60" as="geometry" />
        </mxCell>
        <mxCell id="5tqb1Q8tlAFIYyy0v0kL-21" style="edgeStyle=orthogonalEdgeStyle;rounded=0;orthogonalLoop=1;jettySize=auto;html=1;fontSize=14;" edge="1" parent="WIyWlLk6GJQsqaUBKTNV-1" source="5tqb1Q8tlAFIYyy0v0kL-18">
          <mxGeometry relative="1" as="geometry">
            <mxPoint x="430" y="940" as="targetPoint" />
            <Array as="points">
              <mxPoint x="100" y="600" />
              <mxPoint x="100" y="940" />
            </Array>
          </mxGeometry>
        </mxCell>
        <mxCell id="5tqb1Q8tlAFIYyy0v0kL-18" value="&lt;span style=&quot;font-size: 12px&quot;&gt;&quot;박수짝짝&quot;&lt;/span&gt;" style="strokeWidth=2;html=1;shape=mxgraph.flowchart.document2;whiteSpace=wrap;size=0.25;fontSize=14;" vertex="1" parent="WIyWlLk6GJQsqaUBKTNV-1">
          <mxGeometry x="140" y="570" width="120" height="60" as="geometry" />
        </mxCell>
      </root>
    </mxGraphModel>
  </diagram>
</mxfile>
